<svg width="40" height="40" viewBox="0 0 40 40" fill="none" xmlns="http://www.w3.org/2000/svg">
<g clip-path="url(#clip0_0_475)">
<path d="M2 20C2 10.0589 10.0589 2 20 2C29.9411 2 38 10.0589 38 20C38 29.9411 29.9411 38 20 38C10.0589 38 2 29.9411 2 20Z" fill="#37383D"/>
<path d="M2 20C2 10.0589 10.0589 2 20 2C29.9411 2 38 10.0589 38 20C38 29.9411 29.9411 38 20 38C10.0589 38 2 29.9411 2 20Z" stroke="#0C0C0D" stroke-width="4"/>
<path d="M10 20C15.5228 20 20 15.5228 20 10C20 15.5228 24.4772 20 30 20C24.4772 20 20 24.4772 20 30C20 24.4772 15.5228 20 10 20Z" fill="white"/>
</g>
<path d="M1 20C1 9.50659 9.50659 1 20 1C30.4934 1 39 9.50659 39 20C39 30.4934 30.4934 39 20 39C9.50659 39 1 30.4934 1 20Z" stroke="url(#paint0_linear_0_475)" stroke-width="2"/>
<defs>
<linearGradient id="paint0_linear_0_475" x1="-4" y1="11" x2="40" y2="32" gradientUnits="userSpaceOnUse">
<stop stop-color="white"/>
<stop offset="1" stop-color="#0A84FF"/>
</linearGradient>
<clipPath id="clip0_0_475">
<path d="M0 20C0 8.95431 8.95431 0 20 0C31.0457 0 40 8.95431 40 20C40 31.0457 31.0457 40 20 40C8.95431 40 0 31.0457 0 20Z" fill="white"/>
</clipPath>
</defs>
</svg>
