<svg width="28" height="23" viewBox="0 0 28 23" fill="none" xmlns="http://www.w3.org/2000/svg">
<path d="M0.926758 11.5068L3.42529 7.99561C3.59684 7.74658 3.8016 7.62207 4.03955 7.62207C4.27751 7.62207 4.48503 7.74658 4.66211 7.99561L7.15234 11.5151C7.29622 11.7144 7.37093 11.9025 7.37646 12.0796C7.382 12.2567 7.32113 12.3978 7.19385 12.5029C7.06657 12.6081 6.88118 12.6606 6.6377 12.6606H4.93604C5.06885 13.7729 5.38981 14.8078 5.89893 15.7651C6.40804 16.7225 7.0638 17.5581 7.86621 18.272C8.67415 18.9914 9.59001 19.5531 10.6138 19.957C11.6375 20.361 12.7305 20.563 13.8926 20.563C14.7891 20.563 15.6468 20.4385 16.4658 20.1895C17.2848 19.946 18.043 19.5973 18.7402 19.1436C19.4375 18.6953 20.0601 18.1668 20.6079 17.5581C20.8293 17.3423 21.0617 17.2288 21.3052 17.2178C21.5542 17.2012 21.7783 17.2786 21.9775 17.4502C22.1602 17.6162 22.2542 17.8293 22.2598 18.0894C22.2653 18.355 22.1602 18.5985 21.9443 18.8198C21.2858 19.5614 20.536 20.2033 19.6948 20.7456C18.8537 21.2935 17.9434 21.7168 16.9639 22.0156C15.9844 22.3145 14.9606 22.4639 13.8926 22.4639C12.7637 22.4639 11.6846 22.3006 10.6553 21.9741C9.62598 21.6476 8.67139 21.1828 7.7915 20.5796C6.91162 19.9819 6.13411 19.2736 5.45898 18.4546C4.78385 17.6411 4.23324 16.7446 3.80713 15.7651C3.38656 14.7856 3.11816 13.7508 3.00195 12.6606H1.44971C1.20068 12.6606 1.01253 12.6081 0.885254 12.5029C0.757975 12.3978 0.697103 12.2567 0.702637 12.0796C0.708171 11.9025 0.782878 11.7116 0.926758 11.5068ZM5.85742 4.20215C6.51595 3.46061 7.26579 2.81868 8.10693 2.27637C8.94808 1.73405 9.8584 1.31348 10.8379 1.01465C11.8174 0.71582 12.8356 0.566406 13.8926 0.566406C15.0215 0.566406 16.1006 0.729655 17.1299 1.05615C18.1647 1.38265 19.1221 1.84749 20.002 2.45068C20.8818 3.04834 21.6593 3.75667 22.3345 4.57568C23.0096 5.38916 23.5575 6.28564 23.978 7.26514C24.4041 8.24463 24.6753 9.27946 24.7915 10.3696H26.3354C26.5845 10.3696 26.7699 10.4222 26.8916 10.5273C27.0189 10.6325 27.0798 10.7736 27.0742 10.9507C27.0742 11.1278 27.0023 11.3187 26.8584 11.5234L24.3599 15.0347C24.1828 15.2837 23.9753 15.4082 23.7373 15.4082C23.5049 15.4082 23.3001 15.2837 23.123 15.0347L20.6328 11.5151C20.4889 11.3159 20.4142 11.1278 20.4087 10.9507C20.4032 10.7736 20.4613 10.6325 20.583 10.5273C20.7103 10.4222 20.8984 10.3696 21.1475 10.3696H22.8574C22.7246 9.25732 22.4036 8.22249 21.8945 7.26514C21.3854 6.30778 20.7269 5.47217 19.9189 4.7583C19.1165 4.0389 18.2007 3.47721 17.1714 3.07324C16.1476 2.66927 15.0547 2.46729 13.8926 2.46729C13.0072 2.46729 12.1549 2.58903 11.3359 2.83252C10.5225 3.07601 9.76432 3.42464 9.06152 3.87842C8.35872 4.32666 7.73617 4.85514 7.19385 5.46387C6.97249 5.67969 6.7373 5.79313 6.48828 5.8042C6.23926 5.81527 6.0179 5.73503 5.82422 5.56348C5.63607 5.39746 5.53923 5.18441 5.53369 4.92432C5.52816 4.66423 5.63607 4.4235 5.85742 4.20215Z" fill="white"/>
</svg>
