<svg width="22" height="20" viewBox="0 0 22 20" fill="none" xmlns="http://www.w3.org/2000/svg">
<path fill-rule="evenodd" clip-rule="evenodd" d="M3.98684 6.42944L0.75 8.07739V11.9226L3.98684 13.5705L4.45676 14.3991L4.23993 18.0774L7.51032 20L10.5303 17.9696H11.4699L14.4899 20L17.7603 18.0774L17.5435 14.3991L18.0132 13.5705L21.25 11.9226V8.07739L18.0132 6.42944L17.5435 5.6009L17.7603 1.9226L14.4899 0L11.4699 2.03035L10.5303 2.03035L7.51032 0L4.23993 1.9226L4.45676 5.6009L3.98684 6.42944ZM11.0001 13.5306C13.064 13.5306 14.7372 11.8269 14.7372 9.72533C14.7372 7.62372 13.064 5.92002 11.0001 5.92002C8.9361 5.92002 7.26293 7.62372 7.26293 9.72533C7.26293 11.8269 8.9361 13.5306 11.0001 13.5306Z" fill="white"/>
</svg>
