<svg width="21" height="21" viewBox="0 0 21 21" fill="none" xmlns="http://www.w3.org/2000/svg">
<path d="M0.894531 10.9492C0.894531 5.45117 5.36719 0.978516 10.8652 0.978516C11.4902 0.978516 11.998 1.48633 11.998 2.11133C11.998 2.73633 11.4902 3.24414 10.8652 3.24414C6.61719 3.24414 3.16016 6.70117 3.16016 10.9492C3.16016 15.1973 6.61719 18.6543 10.8652 18.6543C15.123 18.6543 18.5703 15.1973 18.5703 10.9492C18.5703 7.15039 15.7969 3.98633 12.1738 3.35156C12.4863 3.0293 12.6816 2.59961 12.6816 2.11133C12.6816 1.73047 12.5547 1.37891 12.3594 1.0957C17.1543 1.80859 20.8457 5.95898 20.8457 10.9492C20.8457 16.4473 16.3633 20.9199 10.8652 20.9199C5.36719 20.9199 0.894531 16.4473 0.894531 10.9492ZM6.85156 11.5645C6.85156 11.457 6.91016 11.3301 6.99805 11.2129L11.9883 4.94336C12.3691 4.47461 12.9941 4.79688 12.7793 5.38281L11.1387 9.79688H14.2148C14.4492 9.79688 14.6348 9.97266 14.6348 10.207C14.6348 10.3145 14.5762 10.4414 14.4883 10.5586L9.49805 16.8184C9.11719 17.2969 8.49219 16.9648 8.70703 16.3789L10.3477 11.9746H7.27148C7.03711 11.9746 6.85156 11.7988 6.85156 11.5645Z" fill="#48484A"/>
</svg>
